<?xml version="1.0" encoding="UTF-8" standalone="no"?>
<svg
   xmlns:dc="http://purl.org/dc/elements/1.1/"
   xmlns:cc="http://creativecommons.org/ns#"
   xmlns:rdf="http://www.w3.org/1999/02/22-rdf-syntax-ns#"
   xmlns:svg="http://www.w3.org/2000/svg"
   xmlns="http://www.w3.org/2000/svg"
   xmlns:sodipodi="http://sodipodi.sourceforge.net/DTD/sodipodi-0.dtd"
   xmlns:inkscape="http://www.inkscape.org/namespaces/inkscape"
   version="1.1"
   x="0"
   y="0"
   width="425.1201"
   height="139.8425"
   viewBox="0 0 425.1201 139.8425"
   id="svg2"
   inkscape:version="0.91 r13725"
   sodipodi:docname="logo.svg">
  <metadata
     id="metadata47">
    <rdf:RDF>
      <cc:Work
         rdf:about="">
        <dc:format>image/svg+xml</dc:format>
        <dc:type
           rdf:resource="http://purl.org/dc/dcmitype/StillImage" />
        <dc:title></dc:title>
      </cc:Work>
    </rdf:RDF>
  </metadata>
  <sodipodi:namedview
     pagecolor="#ffffff"
     bordercolor="#666666"
     borderopacity="1"
     objecttolerance="10"
     gridtolerance="10"
     guidetolerance="10"
     inkscape:pageopacity="0"
     inkscape:pageshadow="2"
     inkscape:window-width="960"
     inkscape:window-height="1148"
     id="namedview45"
     showgrid="false"
     inkscape:zoom="1.071864"
     inkscape:cx="163.4937"
     inkscape:cy="15.26943"
     inkscape:window-x="960"
     inkscape:window-y="24"
     inkscape:window-maximized="0"
     inkscape:current-layer="svg2"
     fit-margin-top="1"
     fit-margin-left="1"
     fit-margin-right="1"
     fit-margin-bottom="1" />
  <defs
     id="defs4">
    <radialGradient
       id="Gradient_1"
       gradientUnits="userSpaceOnUse"
       cx="-6.2"
       cy="6.056"
       r="1"
       gradientTransform="matrix(4.407,-0.941,0.941,4.407,136.5,-0.246)">
      <stop
         offset="0"
         stop-color="#E62329"
         id="stop7" />
      <stop
         offset="0.527"
         stop-color="#9C2529"
         id="stop9" />
      <stop
         offset="0.527"
         stop-color="#9C2529"
         id="stop11" />
      <stop
         offset="0.705"
         stop-color="#702527"
         id="stop13" />
      <stop
         offset="1"
         stop-color="#702527"
         id="stop15" />
    </radialGradient>
  </defs>
  <g
     id="g3513"
     transform="matrix(2.613579,0,0,2.613579,-1.613579,-1.613579)">
    <path
       d="m 9.256,30.22111 q 0,-0.96 -0.576,-1.504 -0.576,-0.544 -1.424,-0.912 -0.848,-0.368 -1.856,-0.704 -1.008,-0.336 -1.856,-0.864 -0.848,-0.528 -1.424,-1.36 -0.576,-0.832 -0.576,-2.24 0,-2.304 1.312,-3.376 1.312,-1.072 3.648,-1.072 1.728,0 2.896,0.304 1.168,0.304 2.032,0.72 l -0.608,2.112 q -0.736,-0.352 -1.776,-0.624 -1.04,-0.272 -2.224,-0.272 -1.408,0 -2.064,0.48 -0.656,0.48 -0.656,1.664 0,0.832 0.576,1.296 0.576,0.464 1.424,0.832 0.848,0.368 1.856,0.72 1.008,0.352 1.856,0.928 0.848,0.576 1.424,1.456 0.576,0.88 0.576,2.32 0,1.024 -0.336,1.92 -0.336,0.896 -1.04,1.536 -0.704,0.64 -1.744,1.008 -1.04,0.368 -2.448,0.368 -1.824,0 -3.104,-0.352 -1.28,-0.352 -2.144,-0.832 l 0.768,-2.176 q 0.736,0.416 1.92,0.768 1.184,0.352 2.4,0.352 1.376,0 2.272,-0.544 0.896,-0.544 0.896,-1.952 z"
       id="path18"
       inkscape:connector-curvature="0"
       style="fill:#000000" />
    <path
       d="m 16.232,18.57311 2.56,0 0,16 -2.56,0 z m -0.544,-4.864 q 0,-0.736 0.496,-1.264 0.496,-0.528 1.264,-0.528 0.768,0 1.312,0.528 0.544,0.528 0.544,1.264 0,0.736 -0.544,1.216 -0.544,0.48 -1.312,0.48 -0.768,0 -1.264,-0.48 -0.496,-0.48 -0.496,-1.216 z"
       id="path20"
       inkscape:connector-curvature="0"
       style="fill:#000000" />
    <path
       d="m 33.64,34.57311 0,-9.056 q 0,-1.28 -0.112,-2.224 -0.112,-0.944 -0.432,-1.584 -0.32,-0.64 -0.912,-0.96 -0.592,-0.32 -1.552,-0.32 -1.472,0 -2.448,0.896 -0.976,0.896 -1.36,2.24 l 0,11.008 -2.56,0 0,-16 1.792,0 0.48,1.952 0.128,0 q 0.864,-1.024 2,-1.68 1.136,-0.656 2.96,-0.656 1.536,0 2.512,0.592 0.976,0.592 1.52,2.064 0.736,-1.248 2.032,-1.952 1.296,-0.704 2.928,-0.704 1.344,0 2.272,0.304 0.928,0.304 1.536,1.072 0.608,0.768 0.88,2.08 0.272,1.312 0.272,3.328 l 0,9.6 -2.56,0 0,-9.632 q 0,-1.152 -0.112,-2 -0.112,-0.848 -0.448,-1.408 -0.336,-0.56 -0.928,-0.832 -0.592,-0.272 -1.552,-0.272 -1.6,0 -2.496,0.896 -0.896,0.896 -1.28,2.56 l 0,10.688 z"
       id="path22"
       inkscape:connector-curvature="0"
       style="fill:#000000" />
    <path
       d="m 52.552,18.57311 0,9.12 q 0,1.248 0.144,2.192 0.144,0.944 0.496,1.568 0.352,0.624 0.96,0.944 0.608,0.32 1.536,0.32 0.864,0 1.536,-0.272 0.672,-0.272 1.2,-0.752 0.528,-0.48 0.928,-1.104 0.4,-0.624 0.656,-1.328 l 0,-10.688 2.56,0 0,11.456 q 0,1.152 0.08,2.384 0.08,1.232 0.272,2.16 l -1.76,0 -0.64,-2.528 -0.16,0 q -0.736,1.248 -1.984,2.08 -1.248,0.832 -3.168,0.832 -1.28,0 -2.256,-0.304 -0.976,-0.304 -1.632,-1.072 -0.656,-0.768 -0.992,-2.064 -0.336,-1.296 -0.336,-3.28 l 0,-9.664 z"
       id="path24"
       inkscape:connector-curvature="0"
       style="fill:#000000" />
    <path
       d="m 70.344,30.63711 q 0,1.12 0.384,1.6 0.384,0.48 1.088,0.48 0.416,0 0.896,-0.064 0.48,-0.064 1.088,-0.288 l 0.288,2.016 q -0.512,0.256 -1.424,0.416 -0.912,0.16 -1.584,0.16 -1.44,0 -2.368,-0.816 -0.928,-0.816 -0.928,-2.768 l 0,-19.2 2.56,0 z"
       id="path26"
       inkscape:connector-curvature="0"
       style="fill:#000000" />
    <path
       d="m 76.584,19.75711 q 1.216,-0.736 2.832,-1.088 1.616,-0.352 3.376,-0.352 1.664,0 2.672,0.448 1.008,0.448 1.536,1.168 0.528,0.72 0.704,1.584 0.176,0.864 0.176,1.728 0,1.92 -0.096,3.744 -0.096,1.824 -0.096,3.456 0,1.184 0.096,2.24 0.096,1.056 0.352,1.952 l -1.888,0 -0.672,-2.24 -0.16,0 q -0.288,0.448 -0.72,0.88 -0.432,0.432 -1.04,0.768 -0.608,0.336 -1.408,0.56 -0.8,0.224 -1.824,0.224 -1.024,0 -1.904,-0.32 -0.88,-0.32 -1.52,-0.912 -0.64,-0.592 -1.008,-1.424 -0.368,-0.832 -0.368,-1.888 0,-1.408 0.576,-2.352 0.576,-0.944 1.616,-1.504 1.04,-0.56 2.496,-0.8 1.456,-0.24 3.216,-0.24 0.448,0 0.88,0 0.432,0 0.88,0.064 0.096,-0.96 0.096,-1.728 0,-1.76 -0.704,-2.464 -0.704,-0.704 -2.56,-0.704 -0.544,0 -1.168,0.08 -0.624,0.08 -1.28,0.224 -0.656,0.144 -1.248,0.352 -0.592,0.208 -1.04,0.464 z m 4.544,12.832 q 0.896,0 1.6,-0.24 0.704,-0.24 1.216,-0.608 0.512,-0.368 0.848,-0.816 0.336,-0.448 0.496,-0.864 l 0,-2.656 q -0.448,-0.032 -0.912,-0.048 -0.464,-0.016 -0.912,-0.016 -0.992,0 -1.936,0.112 -0.944,0.112 -1.664,0.416 -0.72,0.304 -1.152,0.832 -0.432,0.528 -0.432,1.328 0,1.12 0.8,1.84 0.8,0.72 2.048,0.72 z"
       id="path28"
       inkscape:connector-curvature="0"
       style="fill:#000000" />
    <path
       d="m 90.6,18.57311 2.496,0 0,-3.168 2.56,-0.736 0,3.904 4.352,0 0,2.24 -4.352,0 0,8.864 q 0,1.664 0.416,2.352 0.416,0.688 1.408,0.688 0.832,0 1.408,-0.176 0.576,-0.176 1.28,-0.464 l 0.576,1.952 q -0.864,0.416 -1.888,0.672 -1.024,0.256 -2.208,0.256 -1.952,0 -2.752,-1.104 -0.8,-1.104 -0.8,-3.696 l 0,-9.344 -2.496,0 z"
       id="path30"
       inkscape:connector-curvature="0"
       style="fill:#000000" />
    <path
       d="m 104.104,18.57311 2.56,0 0,16 -2.56,0 z m -0.544,-4.864 q 0,-0.736 0.496,-1.264 0.496,-0.528 1.264,-0.528 0.768,0 1.312,0.528 0.544,0.528 0.544,1.264 0,0.736 -0.544,1.216 -0.544,0.48 -1.312,0.48 -0.768,0 -1.264,-0.48 -0.496,-0.48 -0.496,-1.216 z"
       id="path32"
       inkscape:connector-curvature="0"
       style="fill:#000000" />
    <path
       d="m 130.952,34.57311 0,-9.12 q 0,-2.496 -0.72,-3.76 -0.72,-1.264 -2.64,-1.264 -1.696,0 -2.8,0.912 -1.104,0.912 -1.552,2.288 l 0,10.944 -2.56,0 0,-16 1.792,0 0.48,1.952 0.128,0 q 0.768,-1.024 2.064,-1.68 1.296,-0.656 3.088,-0.656 1.312,0 2.304,0.304 0.992,0.304 1.648,1.072 0.656,0.768 0.992,2.064 0.336,1.296 0.336,3.28 l 0,9.664 z"
       id="path34"
       inkscape:connector-curvature="0"
       style="fill:#000000" />
    <path
       d="m 137.288,26.57311 q 0,-4.064 1.808,-6.224 1.808,-2.16 5.2,-2.16 1.792,0 3.12,0.592 1.328,0.592 2.192,1.696 0.864,1.104 1.28,2.656 0.416,1.552 0.416,3.44 0,4.064 -1.808,6.224 -1.808,2.16 -5.2,2.16 -1.792,0 -3.12,-0.592 -1.328,-0.592 -2.192,-1.696 -0.864,-1.104 -1.28,-2.656 -0.416,-1.552 -0.416,-3.44 z m 2.656,0 q 0,1.216 0.24,2.336 0.24,1.12 0.752,1.952 0.512,0.832 1.344,1.344 0.832,0.512 2.016,0.512 4.352,0.032 4.352,-6.144 0,-1.248 -0.24,-2.368 -0.24,-1.12 -0.752,-1.952 -0.512,-0.832 -1.344,-1.328 -0.832,-0.496 -2.016,-0.496 -4.352,-0.032 -4.352,6.144 z"
       id="path36"
       inkscape:connector-curvature="0"
       style="fill:#000000" />
    <g
       transform="translate(-1.348,-0.9638901)"
       id="g38">
      <path
         d="m 112.482,33.76 c -0.279,-1.308 0.555,-2.594 1.862,-2.873 1.307,-0.279 2.593,0.555 2.873,1.863 0.279,1.308 -0.555,2.595 -1.862,2.874 -1.307,0.279 -2.594,-0.555 -2.873,-1.864 z"
         id="path3357"
         style="fill:url(#Gradient_1)"
         inkscape:connector-curvature="0" />
      <g
         id="layer1-9"
         style="opacity:0.556">
        <g
           id="g2997">
          <path
             d="m 129.619,3.296 c -6.788,2.25 -12.32,7.178 -15.406,13.481 -1.87,3.819 -2.843,8.143 -2.649,12.683 l 3.666,-0.156 c -0.537,-12.548 9.161,-23.113 21.71,-23.65 7.343,-0.315 14.334,2.941 18.826,8.666 l -2.907,0.914 8.038,9.068 1.407,-12.037 -2.834,0.891 C 154.313,5.828 145.768,1.604 136.784,1.988 c -2.497,0.107 -4.902,0.559 -7.165,1.308 z"
             id="path2995"
             inkscape:connector-curvature="0"
             style="fill:#9e2529" />
          <path
             d="m 114.63,36.549 1.757,11.995 2.715,-1.726 c 4.606,4.687 10.812,7.497 17.404,7.849 14.521,0.773 26.962,-10.412 27.735,-24.933 l -3.659,-0.194 c -0.668,12.542 -11.335,22.134 -23.877,21.466 -5.414,-0.288 -10.522,-2.504 -14.423,-6.208 l 2.461,-1.566 -10.113,-6.683 z"
             id="path3036"
             inkscape:connector-curvature="0"
             style="fill:#9e2529" />
        </g>
      </g>
    </g>
  </g>
</svg>
