<?xml version="1.0" encoding="UTF-8" standalone="no"?>
<svg
   xmlns:dc="http://purl.org/dc/elements/1.1/"
   xmlns:cc="http://creativecommons.org/ns#"
   xmlns:rdf="http://www.w3.org/1999/02/22-rdf-syntax-ns#"
   xmlns:svg="http://www.w3.org/2000/svg"
   xmlns="http://www.w3.org/2000/svg"
   xmlns:sodipodi="http://sodipodi.sourceforge.net/DTD/sodipodi-0.dtd"
   xmlns:inkscape="http://www.inkscape.org/namespaces/inkscape"
   version="1.1"
   x="0"
   y="0"
   width="16"
   height="16"
   viewBox="0 0 16 16.00001"
   id="svg2"
   inkscape:version="0.91 r13725"
   sodipodi:docname="favicon.svg">
  <metadata
     id="metadata47">
    <rdf:RDF>
      <cc:Work
         rdf:about="">
        <dc:format>image/svg+xml</dc:format>
        <dc:type
           rdf:resource="http://purl.org/dc/dcmitype/StillImage" />
        <dc:title></dc:title>
      </cc:Work>
    </rdf:RDF>
  </metadata>
  <sodipodi:namedview
     pagecolor="#ffffff"
     bordercolor="#666666"
     borderopacity="1"
     objecttolerance="10"
     gridtolerance="10"
     guidetolerance="10"
     inkscape:pageopacity="0"
     inkscape:pageshadow="2"
     inkscape:window-width="960"
     inkscape:window-height="1148"
     id="namedview45"
     showgrid="false"
     inkscape:zoom="34.29965"
     inkscape:cx="6.603555"
     inkscape:cy="10.03745"
     inkscape:window-x="960"
     inkscape:window-y="24"
     inkscape:window-maximized="0"
     inkscape:current-layer="svg2"
     fit-margin-top="1"
     fit-margin-left="1"
     fit-margin-right="1"
     fit-margin-bottom="1" />
  <defs
     id="defs4">
    <radialGradient
       id="Gradient_1"
       gradientUnits="userSpaceOnUse"
       cx="-6.2"
       cy="6.056"
       r="1"
       gradientTransform="matrix(7.454816,-1.591781,1.591781,7.454816,44.65152,-48.7038)">
      <stop
         offset="0"
         stop-color="#E62329"
         id="stop7" />
      <stop
         offset="0.527"
         stop-color="#9C2529"
         id="stop9" />
      <stop
         offset="0.527"
         stop-color="#9C2529"
         id="stop11" />
      <stop
         offset="0.705"
         stop-color="#702527"
         id="stop13" />
      <stop
         offset="1"
         stop-color="#702527"
         id="stop15" />
    </radialGradient>
  </defs>
  <path
     d="M 4.023015,8.820229 C 3.551062,6.607633 4.961844,4.432258 7.172746,3.960307 9.383644,3.488353 11.55902,4.899135 12.03266,7.11173 12.50462,9.324318 11.09384,11.50138 8.882924,11.97336 6.672035,12.44529 4.494967,11.03451 4.023015,8.820229 Z"
     id="path3357"
     style="fill:url(#Gradient_1)"
     inkscape:connector-curvature="0" />
  <g
     id="layer1-9"
     style="opacity:0.556"
     transform="matrix(0.2948597,0,0,0.2948597,-32.63046,-0.3878256)">
    <g
       id="g2997">
      <path
         d="m 129.619,3.296 c -6.788,2.25 -12.32,7.178 -15.406,13.481 -1.87,3.819 -2.843,8.143 -2.649,12.683 l 3.666,-0.156 c -0.537,-12.548 9.161,-23.113 21.71,-23.65 7.343,-0.315 14.334,2.941 18.826,8.666 l -2.907,0.914 8.038,9.068 1.407,-12.037 -2.834,0.891 C 154.313,5.828 145.768,1.604 136.784,1.988 c -2.497,0.107 -4.902,0.559 -7.165,1.308 z"
         id="path2995"
         inkscape:connector-curvature="0"
         style="fill:#9e2529" />
      <path
         d="m 114.63,36.549 1.757,11.995 2.715,-1.726 c 4.606,4.687 10.812,7.497 17.404,7.849 14.521,0.773 26.962,-10.412 27.735,-24.933 l -3.659,-0.194 c -0.668,12.542 -11.335,22.134 -23.877,21.466 -5.414,-0.288 -10.522,-2.504 -14.423,-6.208 l 2.461,-1.566 -10.113,-6.683 z"
         id="path3036"
         inkscape:connector-curvature="0"
         style="fill:#9e2529" />
    </g>
  </g>
</svg>
