<?xml version="1.0" encoding="UTF-8" standalone="no"?>
<!-- Created with Inkscape (http://www.inkscape.org/) -->

<svg
   xmlns:dc="http://purl.org/dc/elements/1.1/"
   xmlns:cc="http://creativecommons.org/ns#"
   xmlns:rdf="http://www.w3.org/1999/02/22-rdf-syntax-ns#"
   xmlns:svg="http://www.w3.org/2000/svg"
   xmlns="http://www.w3.org/2000/svg"
   xmlns:sodipodi="http://sodipodi.sourceforge.net/DTD/sodipodi-0.dtd"
   xmlns:inkscape="http://www.inkscape.org/namespaces/inkscape"
   width="65.7937mm"
   height="20.60555mm"
   viewBox="0 0 233.1274 73.01181"
   id="svg2"
   version="1.1"
   inkscape:version="0.91 r13725"
   sodipodi:docname="logo.svg">
  <defs
     id="defs4">
    <marker
       inkscape:stockid="Arrow2Lend"
       orient="auto"
       refY="0"
       refX="0"
       id="Arrow2Lend"
       style="overflow:visible"
       inkscape:isstock="true">
      <path
         id="path4213"
         style="fill:#bd0000;fill-opacity:1;fill-rule:evenodd;stroke:#bd0000;stroke-width:0.625;stroke-linejoin:round;stroke-opacity:1"
         d="M 8.718588,4.033735 -2.207289,0.0160133 8.718588,-4.001708 c -1.745498,2.372061 -1.73544,5.617452 0,8.035443 z"
         transform="matrix(-1.1,0,0,-1.1,-1.1,0)"
         inkscape:connector-curvature="0" />
    </marker>
    <marker
       inkscape:stockid="Arrow1Lend"
       orient="auto"
       refY="0"
       refX="0"
       id="Arrow1Lend"
       style="overflow:visible"
       inkscape:isstock="true">
      <path
         id="path4195"
         d="M 0,0 5,-5 -12.5,0 5,5 0,0 Z"
         style="fill:#000000;fill-opacity:1;fill-rule:evenodd;stroke:#000000;stroke-width:1pt;stroke-opacity:1"
         transform="matrix(-0.8,0,0,-0.8,-10,0)"
         inkscape:connector-curvature="0" />
    </marker>
    <marker
       inkscape:stockid="Arrow2Lstart"
       orient="auto"
       refY="0"
       refX="0"
       id="Arrow2Lstart"
       style="overflow:visible"
       inkscape:isstock="true">
      <path
         id="path4210"
         style="fill:#bd0000;fill-opacity:1;fill-rule:evenodd;stroke:#bd0000;stroke-width:0.625;stroke-linejoin:round;stroke-opacity:1"
         d="M 8.718588,4.033735 -2.207289,0.0160133 8.718588,-4.001708 c -1.745498,2.372061 -1.73544,5.617452 0,8.035443 z"
         transform="matrix(1.1,0,0,1.1,1.1,0)"
         inkscape:connector-curvature="0" />
    </marker>
    <inkscape:path-effect
       effect="spiro"
       id="path-effect3352"
       is_visible="true" />
    <radialGradient
       fx="0"
       fy="0"
       cx="0"
       cy="0"
       r="1"
       gradientUnits="userSpaceOnUse"
       gradientTransform="matrix(21.80627,0,0,21.80627,539.6699,-334.9771)"
       spreadMethod="pad"
       id="radialGradient3345">
      <stop
         style="stop-opacity:1;stop-color:#e62329"
         offset="0"
         id="stop3347" />
      <stop
         style="stop-opacity:1;stop-color:#9c2529"
         offset="0.52681"
         id="stop3349" />
      <stop
         style="stop-opacity:1;stop-color:#9c2529"
         offset="0.52681"
         id="stop3351" />
      <stop
         style="stop-opacity:1;stop-color:#702527"
         offset="0.70505"
         id="stop3353" />
      <stop
         style="stop-opacity:1;stop-color:#702527"
         offset="1"
         id="stop3355" />
    </radialGradient>
  </defs>
  <sodipodi:namedview
     id="base"
     pagecolor="#ffffff"
     bordercolor="#666666"
     borderopacity="1.0"
     inkscape:pageopacity="0.0"
     inkscape:pageshadow="2"
     inkscape:zoom="3.429959"
     inkscape:cx="117.9314"
     inkscape:cy="54.56696"
     inkscape:document-units="px"
     inkscape:current-layer="layer1"
     showgrid="false"
     inkscape:window-width="960"
     inkscape:window-height="1148"
     inkscape:window-x="0"
     inkscape:window-y="24"
     inkscape:window-maximized="0"
     fit-margin-top="1"
     fit-margin-left="1"
     fit-margin-right="1"
     fit-margin-bottom="1" />
  <metadata
     id="metadata7">
    <rdf:RDF>
      <cc:Work
         rdf:about="">
        <dc:format>image/svg+xml</dc:format>
        <dc:type
           rdf:resource="http://purl.org/dc/dcmitype/StillImage" />
        <dc:title></dc:title>
      </cc:Work>
    </rdf:RDF>
  </metadata>
  <g
     inkscape:label="Layer 1"
     inkscape:groupmode="layer"
     id="layer1"
     transform="translate(-183.4826,-211.7454)">
    <g
       style="font-style:normal;font-weight:normal;font-size:40px;line-height:125%;font-family:Sans;letter-spacing:0px;word-spacing:0px;fill:#000000;fill-opacity:1;stroke:none;stroke-width:1px;stroke-linecap:butt;stroke-linejoin:miter;stroke-opacity:1"
       id="text3336">
      <path
         d="m 202.5727,238.9806 0,3.3985 q -1.5234,-0.7813 -3.164,-1.1719 -1.6406,-0.3906 -3.3985,-0.3906 -2.6757,0 -4.0234,0.8203 -1.3281,0.8203 -1.3281,2.4609 0,1.25 0.957,1.9727 0.957,0.7031 3.8477,1.3476 l 1.2304,0.2735 q 3.8282,0.8203 5.4297,2.3242 1.6211,1.4844 1.6211,4.1601 0,3.0469 -2.4219,4.8243 -2.4023,1.7773 -6.6211,1.7773 -1.7578,0 -3.6718,-0.3516 -1.8946,-0.332 -4.0039,-1.0156 l 0,-3.7109 q 1.9922,1.0351 3.9257,1.5625 1.9336,0.5078 3.8282,0.5078 2.539,0 3.9062,-0.8594 1.3672,-0.8789 1.3672,-2.4609 0,-1.4649 -0.9961,-2.2461 -0.9765,-0.7813 -4.3164,-1.5039 l -1.25,-0.293 q -3.3398,-0.7031 -4.8242,-2.1484 -1.4844,-1.4649 -1.4844,-4.0039 0,-3.086 2.1875,-4.7657 2.1875,-1.6797 6.211,-1.6797 1.9921,0 3.75,0.293 1.7578,0.293 3.2421,0.8789 z"
         id="path3359"
         inkscape:connector-curvature="0" />
      <path
         d="m 209.4868,238.3361 3.5938,0 0,21.875 -3.5938,0 0,-21.875 z m 0,-8.5156 3.5938,0 0,4.5507 -3.5938,0 0,-4.5507 z"
         id="path3361"
         inkscape:connector-curvature="0" />
      <path
         d="m 237.6118,242.5353 q 1.3477,-2.4219 3.2227,-3.5742 1.875,-1.1524 4.414,-1.1524 3.418,0 5.2735,2.4024 1.8554,2.3828 1.8554,6.7969 l 0,13.2031 -3.6133,0 0,-13.0859 q 0,-3.1446 -1.1132,-4.668 -1.1133,-1.5235 -3.3985,-1.5235 -2.7929,0 -4.414,1.8555 -1.6211,1.8555 -1.6211,5.0586 l 0,12.3633 -3.6133,0 0,-13.0859 q 0,-3.1641 -1.1133,-4.668 -1.1133,-1.5235 -3.4375,-1.5235 -2.7539,0 -4.375,1.875 -1.6211,1.8555 -1.6211,5.0391 l 0,12.3633 -3.6133,0 0,-21.875 3.6133,0 0,3.3984 q 1.2305,-2.0117 2.9492,-2.9687 1.7188,-0.9571 4.0821,-0.9571 2.3828,0 4.0429,1.211 1.6797,1.2109 2.4805,3.5156 z"
         id="path3363"
         inkscape:connector-curvature="0" />
      <path
         d="m 259.1938,251.5783 0,-13.2422 3.5938,0 0,13.1055 q 0,3.1054 1.2109,4.6679 1.211,1.543 3.6328,1.543 2.9102,0 4.5899,-1.8555 1.6992,-1.8554 1.6992,-5.0586 l 0,-12.4023 3.5937,0 0,21.875 -3.5937,0 0,-3.3594 q -1.3086,1.9922 -3.0469,2.9688 -1.7187,0.957 -4.0039,0.957 -3.7695,0 -5.7226,-2.3438 -1.9532,-2.3437 -1.9532,-6.8554 z m 9.043,-13.7696 0,0 z"
         id="path3365"
         inkscape:connector-curvature="0" />
      <path
         d="m 284.9556,229.8205 3.5937,0 0,30.3906 -3.5937,0 0,-30.3906 z"
         id="path3367"
         inkscape:connector-curvature="0" />
      <path
         d="m 305.9907,249.215 q -4.3555,0 -6.0351,0.9961 -1.6797,0.9961 -1.6797,3.3984 0,1.9141 1.25,3.0469 1.2695,1.1133 3.4375,1.1133 2.9882,0 4.7851,-2.1094 1.8164,-2.1289 1.8164,-5.6445 l 0,-0.8008 -3.5742,0 z m 7.168,-1.4844 0,12.4805 -3.5938,0 0,-3.3203 q -1.2304,1.9922 -3.0664,2.9492 -1.8359,0.9375 -4.4922,0.9375 -3.3593,0 -5.3515,-1.875 -1.9727,-1.8945 -1.9727,-5.0586 0,-3.6914 2.461,-5.5664 2.4804,-1.875 7.3828,-1.875 l 5.039,0 0,-0.3516 q 0,-2.4804 -1.6406,-3.8281 -1.6211,-1.3672 -4.5703,-1.3672 -1.875,0 -3.6524,0.4492 -1.7773,0.4493 -3.4179,1.3477 l 0,-3.3203 q 1.9726,-0.7617 3.8281,-1.1328 1.8555,-0.3907 3.6133,-0.3907 4.7461,0 7.0898,2.461 2.3438,2.4609 2.3438,7.4609 z"
         id="path3369"
         inkscape:connector-curvature="0" />
      <path
         d="m 324.1352,232.1252 0,6.2109 7.4024,0 0,2.793 -7.4024,0 0,11.875 q 0,2.6757 0.7227,3.4375 0.7422,0.7617 2.9883,0.7617 l 3.6914,0 0,3.0078 -3.6914,0 q -4.1602,0 -5.7422,-1.543 -1.582,-1.5625 -1.582,-5.664 l 0,-11.875 -2.6368,0 0,-2.793 2.6368,0 0,-6.2109 3.6132,0 z"
         id="path3371"
         inkscape:connector-curvature="0" />
      <path
         d="m 336.2837,238.3361 3.5937,0 0,21.875 -3.5937,0 0,-21.875 z m 0,-8.5156 3.5937,0 0,4.5507 -3.5937,0 0,-4.5507 z"
         id="path3373"
         inkscape:connector-curvature="0" />
      <path
         d="m 378.2954,247.008 0,13.2031 -3.5938,0 0,-13.0859 q 0,-3.1055 -1.2109,-4.6485 -1.2109,-1.543 -3.6328,-1.543 -2.9102,0 -4.5898,1.8555 -1.6797,1.8555 -1.6797,5.0586 l 0,12.3633 -3.6133,0 0,-21.875 3.6133,0 0,3.3984 q 1.289,-1.9726 3.0273,-2.9492 1.7578,-0.9766 4.043,-0.9766 3.7695,0 5.7031,2.3438 1.9336,2.3242 1.9336,6.8555 z"
         id="path3375"
         inkscape:connector-curvature="0" />
      <path
         d="m 393.979,240.8556 q -2.8906,0 -4.5703,2.2656 -1.6797,2.2461 -1.6797,6.1719 0,3.9258 1.6601,6.1914 1.6797,2.2461 4.5899,2.2461 2.8711,0 4.5508,-2.2656 1.6797,-2.2656 1.6797,-6.1719 0,-3.8867 -1.6797,-6.1523 -1.6797,-2.2852 -4.5508,-2.2852 z m 0,-3.0469 q 4.6875,0 7.3633,3.0469 2.6758,3.0469 2.6758,8.4375 0,5.3711 -2.6758,8.4375 -2.6758,3.0469 -7.3633,3.0469 -4.707,0 -7.3828,-3.0469 -2.6563,-3.0664 -2.6563,-8.4375 0,-5.3906 2.6563,-8.4375 2.6758,-3.0469 7.3828,-3.0469 z"
         id="path3377"
         inkscape:connector-curvature="0" />
    </g>
    <g
       id="g3333"
       transform="matrix(0.2583169,0,0,0.2583169,211.5317,343.5366)">
      <g
         id="g3335">
        <g
           id="g3341">
          <g
             id="g3343">
            <path
               inkscape:connector-curvature="0"
               d="m 526.8535,-330.354 c 0,-6.4731 5.2442,-11.7207 11.7129,-11.7207 6.4688,0 11.7129,5.2476 11.7129,11.7207 0,6.4731 -5.2441,11.7202 -11.7129,11.7202 -6.4687,0 -11.7129,-5.2471 -11.7129,-11.7202 z"
               style="fill:url(#radialGradient3345);stroke:none"
               id="path3357" />
          </g>
        </g>
      </g>
    </g>
    <g
       id="layer1-9"
       transform="matrix(1.490811,-0.6828392,0.6828393,1.490811,-382.4348,-1194.847)"
       style="opacity:0.556;fill:#9e2529;fill-opacity:1">
      <g
         id="g3016"
         transform="matrix(-1,0,0,1,502.6995,6.612037e-6)"
         style="fill:#9e2529;fill-opacity:1" />
      <g
         id="g2997"
         transform="matrix(0.0658593,-0.0658593,0.0658593,0.0658593,-13.001,958.1981)"
         style="fill:#9e2529;fill-opacity:1">
        <path
           inkscape:connector-curvature="0"
           d="M 246.5937,40.15625 C 188.069,41.06007 132.7823,65.9619 93.21875,107.5938 69.24086,132.8252 51.03234,164.1999 41.40625,200.125 l 29,7.7812 C 97.01344,108.6069 198.6694,49.92406 297.9687,76.53125 356.073,92.10024 402.6681,134.677 423.6875,190.4062 l -24.9375,0 40.5,90.5313 40.5312,-90.5313 -24.3125,0 C 433.1873,120.53 376.8389,66.57946 305.75,47.53125 285.9912,42.2369 266.102,39.85498 246.5937,40.15625 Z"
           id="path2995"
           style="fill:#9e2529;fill-opacity:1;stroke:none"
           transform="matrix(0.7071068,0.7071068,-0.7071068,0.7071068,260.3343,438.6611)" />
        <path
           inkscape:connector-curvature="0"
           d="m 47.9375,263 -15.71875,97.9687 25.4375,-6.8125 c 24.45424,47.899 66.01025,85.076 116.62495,104 111.4786,41.6802 236.07,-15.1152 277.75,-126.5937 l -28.0937,-10.5 c -36.0021,96.2921 -142.8329,145.0021 -239.125,109 -41.5614,-15.5392 -76.0056,-45.382 -97.375,-83.875 L 110.5,340 47.9375,263 Z"
           id="path3036"
           style="fill:#9e2529;fill-opacity:1;stroke:none"
           transform="matrix(0.7071068,0.7071068,-0.7071068,0.7071068,260.3343,438.6611)" />
      </g>
    </g>
  </g>
</svg>
